<?xml version="1.0" standalone="no"?>
<!DOCTYPE svg PUBLIC "-//W3C//DTD SVG 20010904//EN"
 "http://www.w3.org/TR/2001/REC-SVG-20010904/DTD/svg10.dtd">
<svg version="1.0" xmlns="http://www.w3.org/2000/svg"
 width="1200.000000pt" height="1200.000000pt" viewBox="0 0 1200.000000 1200.000000"
 preserveAspectRatio="xMidYMid meet">

<g transform="translate(0.000000,1200.000000) scale(0.100000,-0.100000)"
fill="#000000" stroke="none">
<path d="M0 6000 l0 -6000 6000 0 6000 0 0 6000 0 6000 -2965 0 -2965 0 0
-1544 0 -1545 43 -5 c23 -3 69 -8 102 -11 172 -18 373 -76 553 -161 483 -227
847 -670 976 -1185 30 -120 56 -296 56 -386 l0 -63 -359 0 -358 0 -12 -106
c-20 -173 -67 -311 -156 -459 l-46 -75 76 -180 c41 -99 75 -183 74 -187 -1
-17 -138 -129 -237 -193 -171 -114 -385 -192 -599 -221 -134 -18 -373 -6 -505
25 -189 44 -359 121 -516 234 -74 53 -182 146 -182 158 0 2 34 86 75 185 l76
181 -42 65 c-87 139 -140 294 -160 467 l-12 106 -358 0 -359 0 0 59 c0 96 28
287 60 409 168 633 670 1127 1307 1286 86 22 139 31 321 52 l42 5 0 1545 0
1544 -2965 0 -2965 0 0 -6000z m5780 -1096 c27 -15 60 -43 74 -63 30 -43 56
-137 56 -203 l0 -48 -90 0 -90 0 0 44 c0 55 -17 104 -40 116 -32 17 -95 12
-115 -10 -26 -29 -30 -99 -10 -160 15 -45 36 -71 140 -174 67 -67 134 -140
148 -162 43 -70 60 -146 55 -245 -6 -104 -31 -163 -89 -213 -52 -44 -108 -59
-211 -55 -109 5 -165 37 -212 119 -26 47 -31 66 -34 147 l-4 93 91 0 91 0 0
-70 c0 -62 3 -74 25 -95 18 -19 35 -25 65 -25 64 0 90 32 90 112 -1 97 -23
135 -165 275 -162 160 -190 212 -190 353 0 55 6 111 14 134 16 45 72 111 112
132 82 42 210 41 289 -2z m647 0 c60 -29 105 -86 124 -156 6 -24 9 -189 7
-441 -3 -393 -3 -403 -25 -443 -28 -53 -91 -107 -142 -122 -21 -7 -74 -12
-117 -12 -127 0 -199 42 -246 145 -23 49 -23 58 -26 429 -2 252 1 396 8 432
12 57 54 122 102 157 71 53 219 58 315 11z m2826 14 c54 -16 111 -69 138 -130
24 -52 24 -57 27 -427 2 -242 -1 -392 -8 -426 -15 -73 -59 -138 -116 -171 -41
-24 -62 -29 -139 -32 -78 -4 -99 -1 -144 18 -30 14 -66 40 -87 64 -63 73 -65
96 -62 543 3 366 5 401 22 433 23 45 73 98 109 117 64 33 171 38 260 11z
m1377 -4 c45 -19 87 -59 111 -107 20 -38 45 -190 34 -207 -4 -6 -44 -10 -91
-10 l-84 0 0 45 c0 93 -45 144 -112 130 -44 -10 -68 -49 -68 -112 0 -80 28
-124 159 -253 65 -64 129 -136 144 -161 90 -152 67 -378 -46 -460 -55 -40
-107 -52 -204 -47 -106 6 -161 37 -207 118 -26 47 -31 66 -34 147 l-4 93 84 0
85 0 5 -70 c7 -90 30 -120 94 -120 26 0 50 7 65 19 22 17 24 27 24 98 -1 56
-6 88 -19 113 -10 19 -74 90 -141 157 -151 149 -186 210 -193 332 -10 169 64
282 201 311 53 11 150 3 197 -16z m-9180 -4 c0 -9 172 -1077 184 -1142 l6 -28
-94 0 -94 0 -11 83 c-7 45 -14 97 -18 115 l-5 32 -104 0 -103 0 -6 -32 c-3
-18 -11 -69 -17 -113 l-13 -80 -82 -3 c-74 -2 -83 -1 -83 15 -1 10 41 276 92
591 l93 572 127 0 c79 0 128 -4 128 -10z m460 -495 l0 -505 155 0 156 0 -3
-82 -3 -83 -245 0 -245 0 -3 575 c-1 316 0 581 3 588 3 8 32 12 95 12 l90 0 0
-505z m580 0 l0 -505 150 0 150 0 0 -85 0 -85 -245 0 -245 0 0 590 0 590 95 0
95 0 0 -505z m835 61 c25 -279 42 -427 46 -405 4 19 24 217 45 442 l38 407
102 0 101 0 6 -47 c3 -27 22 -227 43 -445 21 -219 39 -396 40 -395 2 1 19 180
38 397 20 217 39 416 42 443 l6 47 80 0 81 0 -6 -47 c-4 -27 -29 -277 -57
-558 -28 -280 -53 -525 -56 -542 l-5 -33 -114 0 c-63 0 -115 1 -115 3 0 1 -18
170 -40 376 -22 205 -40 381 -41 390 -2 42 -11 -30 -43 -344 -20 -187 -38
-359 -41 -382 l-6 -43 -120 0 c-87 0 -121 3 -124 13 -6 16 -115 1097 -115
1137 l0 31 87 -3 88 -3 40 -439z m945 -146 l0 -590 -95 0 -95 0 0 590 0 590
95 0 95 0 0 -590z m375 568 c3 -13 44 -169 90 -348 l84 -325 0 348 1 347 85 0
85 0 0 -590 0 -590 -98 0 -98 0 -110 424 -109 425 -3 -425 -2 -425 -83 3 -82
3 -3 575 c-1 316 0 581 3 588 3 8 37 12 119 12 112 0 116 -1 121 -22z m2227
-480 l3 -503 153 -3 152 -3 0 -84 0 -85 -247 2 -248 3 -3 588 -2 587 95 0 95
0 2 -502z m570 18 l3 -484 24 -26 c34 -36 98 -36 132 0 l24 26 3 484 3 484 90
0 90 0 -3 -497 -3 -498 -24 -53 c-28 -61 -84 -114 -140 -130 -21 -7 -74 -12
-118 -12 -128 0 -207 51 -250 162 -15 37 -17 108 -21 536 l-4 492 96 0 95 0 3
-484z m1018 399 l0 -85 -95 0 -95 0 0 -505 0 -505 -95 0 -95 0 0 505 0 505
-95 0 -95 0 0 85 0 85 285 0 285 0 0 -85z m275 -505 l0 -585 -92 -3 -93 -3 0
591 0 591 93 -3 92 -3 0 -585z m1124 258 c46 -183 88 -340 92 -348 5 -8 9 141
9 333 l0 347 80 0 80 0 0 -590 0 -590 -94 0 -93 0 -30 113 c-16 61 -65 250
-109 419 l-79 307 -3 -419 -2 -420 -85 0 -85 0 0 590 0 590 118 0 117 0 84
-332z"/>
<path d="M6219 4741 l-24 -19 -3 -369 c-2 -202 0 -378 3 -391 16 -63 103 -85
150 -38 33 33 37 84 33 453 -3 308 -4 323 -24 350 -28 37 -98 44 -135 14z"/>
<path d="M9099 4759 c-53 -20 -54 -31 -54 -430 0 -358 1 -368 21 -396 28 -37
98 -44 135 -14 l24 19 3 385 3 385 -23 26 c-26 30 -71 40 -109 25z"/>
<path d="M1306 4660 c-23 -144 -72 -516 -69 -522 2 -5 38 -8 79 -8 70 0 74 1
74 23 0 20 -66 501 -73 537 -2 8 -7 -5 -11 -30z"/>
</g>
</svg>
